HIERARCHY
ROOT hip
{
	OFFSET	0.00  0.00  0.00 
	CHANNELS 6 Xposition Yposition Zposition Xrotation Zrotation Yrotation
	JOINT abdomen
	{
		OFFSET	0.000000 1.799998 0.000000
		CHANNELS 3 Xrotation Zrotation Yrotation
		JOINT chest
		{
			OFFSET	0.000000 4.464001 -0.360000
			CHANNELS 3 Xrotation Zrotation Yrotation
			JOINT neck
			{
				OFFSET	0.000000 5.400002 -0.144000
				CHANNELS 3 Xrotation Zrotation Yrotation
				JOINT head
				{
					OFFSET	0.000000 1.655998 0.000000
					CHANNELS 3 Xrotation Zrotation Yrotation
				}
			}
			JOINT lCollar
			{
				OFFSET	1.872000 3.528000 -0.432000
				CHANNELS 3 Yrotation Zrotation Xrotation
				JOINT lShldr
				{
					OFFSET	1.656000 0.000000 0.000000
					CHANNELS 3 Zrotation Yrotation Xrotation
					JOINT lForeArm
					{
						OFFSET	5.400000 0.000000 0.000000
						CHANNELS 3 Yrotation Zrotation Xrotation
						JOINT lHand
						{
							OFFSET	4.392000 0.000000 0.000000
							CHANNELS 3 Zrotation Yrotation Xrotation
						}
					}
				}
			}
			JOINT rCollar
			{
				OFFSET	-1.872000 3.528000 -0.432000
				CHANNELS 3 Yrotation Zrotation Xrotation
				JOINT rShldr
				{
					OFFSET	-1.656000 0.000000 0.000000
					CHANNELS 3 Zrotation Yrotation Xrotation
					JOINT rForeArm
					{
						OFFSET	-5.400000 0.000000 0.000000
						CHANNELS 3 Yrotation Zrotation Xrotation
						JOINT rHand
						{
							OFFSET	-4.392000 0.000000 0.000000
							CHANNELS 3 Zrotation Yrotation Xrotation
						}
					}
				}
			}
		}
	}
	JOINT lThigh
	{
		OFFSET	2.808000 -0.864002 0.720000
		CHANNELS 3 Xrotation Zrotation Yrotation
		JOINT lShin
		{
			OFFSET	-1.080000 -10.583999 0.000000
			CHANNELS 3 Xrotation Zrotation Yrotation
			JOINT lFoot
			{
				OFFSET	0.000000 -10.152000 -0.648000
				CHANNELS 3 Xrotation Yrotation Zrotation
				End Site
				{
					OFFSET 0.000000 -1.296000 2.448000
				}
			}
		}
	}
	JOINT rThigh
	{
		OFFSET	-2.808000 -0.864002 0.720000
		CHANNELS 3 Xrotation Zrotation Yrotation
		JOINT rShin
		{
			OFFSET	1.080000 -10.583999 0.000000
			CHANNELS 3 Xrotation Zrotation Yrotation
			JOINT rFoot
			{
				OFFSET	0.000000 -10.152000 -0.648000
				CHANNELS 3 Xrotation Yrotation Zrotation
				End Site
				{
					OFFSET 0.000000 -1.296000 2.448000
				}
			}
		}
	}
}
MOTION
Frames:     10
Frame Time: 0.033333
0.000000 23.151886 0.000000 0.000000 0.000000 0.000000 0.000000 0.000000 0.000000 0.000000 0.000000 0.000000 0.000000 0.000000 0.000000 0.000000 0.000000 0.000000 0.000000 0.000000 0.000000 0.000000 0.000000 0.000000 0.000000 0.000000 0.000000 0.000000 0.000000 0.000000 9.990230 0.000000 0.000000 0.000000 0.000000 0.000000 0.000000 0.000000 0.000000 0.000000 0.000000 0.000000 0.000000 0.000000 0.000000 0.009766 0.000000 0.000000 -0.273437 0.000000 0.000000 0.000000 -0.058594 0.000000 0.020493 0.032569 -0.011854 0.497961 0.003586 0.012903 
2.557541 8.658073 -4.709592 1.939700 0.849000 -0.090600 -0.009259 -0.726273 0.605903 12.226600 1.904360 -0.148244 0.000000 0.000000 1.888310 0.000000 0.000000 0.000000 -30.000000 -17.372999 -6.797200 -50.973598 -18.289600 18.709999 -42.846802 -0.000000 20.000000 6.854150 3.410730 0.000000 30.000000 17.372999 -6.797200 50.973598 18.289600 18.709999 42.846802 0.000000 20.000000 -6.854150 -3.410730 0.000000 -88.388802 26.621201 -0.467411 92.981003 -0.203401 -0.211224 -11.000000 -0.000000 -0.000000 -92.388802 -25.621201 0.467411 92.981003 0.203401 0.211224 -3.000000 10.000000 0.000000 
2.557431 8.658325 -4.709535 1.939700 0.849000 -0.090600 0.051364 -0.644504 1.537714 12.300893 1.673810 -0.126652 -1.157192 0.878675 5.206754 -0.907867 -0.183035 -0.008452 -30.000000 -17.372999 -6.797200 -50.973598 -18.289600 18.709999 -42.846802 0.000000 20.000000 6.854146 3.410728 0.000000 30.000000 17.371981 -6.801876 50.970448 18.288607 18.706860 42.842751 0.007636 19.996489 -6.253305 -3.249881 -0.031059 -100.746323 31.291605 -0.679044 99.170105 -1.366029 -0.298306 -3.785039 -2.979795 3.681880 -93.316269 -24.907293 1.466264 93.552620 0.146349 0.020603 -2.688651 9.586107 -0.238972 
2.557308 8.658607 -4.709472 1.939700 0.849000 -0.090600 0.120569 -0.391040 2.526871 12.424421 1.328287 -0.094026 -2.708758 2.056806 9.656135 -2.125138 -0.428450 -0.019784 -30.000000 -17.373001 -6.797201 -50.973606 -18.289602 18.710001 -42.846806 0.000000 20.000000 6.854144 3.410726 0.000000 30.000000 17.370617 -6.808145 50.966228 18.287275 18.702652 42.837326 0.017874 19.991781 -5.447692 -3.034215 -0.072703 -112.934998 37.180237 -1.422179 107.073280 -2.809300 -0.362028 5.794973 -6.998202 8.649110 -94.702393 -25.059698 2.522744 94.417694 0.065891 -0.141481 -2.261466 9.011637 -0.595966 
2.557185 8.658885 -4.709410 1.939701 0.849000 -0.090600 0.207139 -0.721709 4.065872 12.422232 1.229304 -0.085498 -4.451519 3.380114 14.653797 -3.492409 -0.704106 -0.032513 -30.000000 -17.373005 -6.797203 -50.973621 -18.289606 18.710005 -42.846817 0.000000 20.000000 6.854142 3.410724 0.000000 30.000000 17.369085 -6.815187 50.961487 18.285778 18.697924 42.831230 0.029374 19.986492 -4.542806 -2.791973 -0.119479 -117.350998 43.413471 -2.243670 113.584976 -4.144333 -0.582035 12.397449 -9.558202 11.806819 -96.395699 -26.023237 4.190843 95.481339 0.027672 -0.572326 -2.018887 8.707844 -0.699641 
2.557063 8.659164 -4.709348 1.939701 0.849000 -0.090600 0.331679 -2.664350 6.963020 12.064200 1.841530 -0.146337 -6.203196 4.710192 19.677029 -4.866674 -0.981172 -0.045307 -30.000000 -17.373007 -6.797204 -50.973629 -18.289608 18.710009 -42.846828 0.000000 20.000000 6.854139 3.410723 0.000000 30.000000 17.367546 -6.822264 50.956726 18.284273 18.693172 42.825104 0.040933 19.981178 -3.633291 -2.548492 -0.166494 -114.790611 49.346775 -2.378462 115.304001 -5.000000 -1.217970 9.685820 -7.642750 9.414000 -98.203629 -27.202717 7.372180 96.618263 0.113895 -1.707250 -2.330120 9.209320 -0.073188 
2.556942 8.659440 -4.709286 1.939701 0.849001 -0.090600 0.505081 -6.791935 11.725070 11.212773 3.446104 -0.303895 -7.781508 5.908632 24.203106 -6.104928 -1.230817 -0.056834 -30.000000 -17.373009 -6.797205 -50.973637 -18.289608 18.710012 -42.846836 0.000000 20.000000 6.854136 3.410721 0.000000 30.000000 17.366156 -6.828640 50.952423 18.282913 18.688887 42.819572 0.051348 19.976385 -2.813788 -2.329108 -0.208856 -108.164169 54.335632 -1.061503 110.170349 -5.000000 -2.431403 -4.447218 -0.014973 1.791407 -99.933601 -28.002939 12.541759 97.703171 0.389287 -3.791217 -3.400777 10.825110 1.561590 
2.556823 8.659709 -4.709227 1.939702 0.849001 -0.090600 0.699384 -11.857976 17.652580 10.100659 5.590048 -0.513860 -9.004179 6.837026 27.709320 -7.064167 -1.424209 -0.065765 -30.000000 -17.373016 -6.797207 -50.973652 -18.289612 18.710020 -42.846851 0.000000 20.000000 6.854134 3.410720 0.000000 30.000000 17.365078 -6.833579 50.949085 18.281860 18.685568 42.815285 0.059415 19.972673 -2.178943 -2.159157 -0.241673 -100.382004 57.735500 2.472260 101.488998 -5.000000 -3.991620 -15.191900 7.441310 5.506860 -101.393044 -27.828707 18.468143 98.610802 0.848660 -6.307772 -4.782088 12.962067 3.688441 
2.556705 8.659980 -4.709166 1.939702 0.849001 -0.090600 0.876915 -16.161116 23.744555 9.053124 7.636854 -0.714002 -9.688929 7.356967 29.672955 -7.601381 -1.532517 -0.070766 -30.000000 -17.373016 -6.797207 -50.973652 -18.289610 18.710020 -42.846851 0.000000 20.000000 6.854130 3.410718 0.000000 30.000000 17.364471 -6.836343 50.947205 18.281269 18.683704 42.812878 0.063934 19.970592 -1.823398 -2.063975 -0.260051 -93.830956 59.253090 8.310191 93.471634 -4.847976 -5.257854 -10.553200 7.079290 22.705700 -102.389381 -26.084822 23.493288 99.215874 1.469348 -8.550101 -5.861693 14.801497 5.592500 
2.556589 8.660248 -4.709105 1.939701 0.849001 -0.090600 1.000000 -18.000000 29.000000 8.395440 8.950020 -0.842091 -9.653480 7.330050 29.571301 -7.573570 -1.526910 -0.070507 -30.000000 -17.373009 -6.797205 -50.973637 -18.289602 18.710014 -42.846836 0.000000 20.000000 6.854124 3.410714 0.000000 30.000000 17.364500 -6.836200 50.947300 18.281300 18.683800 42.813000 0.063700 19.970699 -1.841800 -2.068900 -0.259100 -88.804001 60.000000 13.828900 88.592003 -4.139710 -4.341400 -3.250340 -4.816370 8.931560 -102.730042 -22.176092 25.959143 99.393120 2.228686 -9.811395 -6.027228 15.524709 6.558901 
